<svg width="38" height="38" viewBox="0 0 38 38" fill="none" xmlns="http://www.w3.org/2000/svg">
<g clip-path="url(#clip0_219_161)">
<path d="M0 18.1875C0 7.73672 8.18672 0 18.75 0C29.3133 0 37.5 7.73672 37.5 18.1875C37.5 28.6383 29.3133 36.375 18.75 36.375C16.8516 36.375 15.0328 36.1242 13.3219 35.6555C12.9901 35.5632 12.6367 35.588 12.3211 35.7258L8.59922 37.3711C8.37443 37.4702 8.12873 37.5127 7.88371 37.4946C7.63869 37.4766 7.40185 37.3987 7.19401 37.2677C6.98617 37.1367 6.81368 36.9566 6.69172 36.7433C6.56975 36.5301 6.50204 36.2901 6.49453 36.0445L6.39141 32.7094C6.38428 32.5064 6.33594 32.3069 6.24931 32.1232C6.16268 31.9395 6.03958 31.7753 5.8875 31.6406C2.24063 28.3781 0 23.6531 0 18.1875ZM12.9984 14.768L7.49063 23.5055C6.96328 24.3445 7.99219 25.2891 8.78203 24.6914L14.7 20.2008C14.8946 20.0529 15.1321 19.9725 15.3766 19.9717C15.621 19.9708 15.859 20.0496 16.0547 20.1961L20.4352 23.482C20.746 23.7151 21.1017 23.8813 21.4799 23.97C21.8581 24.0588 22.2506 24.0682 22.6326 23.9978C23.0147 23.9273 23.378 23.7785 23.6997 23.5606C24.0213 23.3428 24.2944 23.0606 24.5016 22.732L30.0094 13.9945C30.5391 13.1555 29.5078 12.2109 28.718 12.8086L22.8 17.2992C22.6054 17.4471 22.3679 17.5275 22.1234 17.5283C21.879 17.5292 21.641 17.4504 21.4453 17.3039L17.0648 14.0156C16.754 13.7826 16.3983 13.6164 16.0201 13.5276C15.6419 13.4389 15.2494 13.4294 14.8674 13.4999C14.4853 13.5703 14.122 13.7192 13.8003 13.937C13.4787 14.1549 13.2056 14.437 12.9984 14.7656V14.768Z" fill="#DDDDDD"/>
</g>
<defs>
<clipPath id="clip0_219_161">
<rect width="37.5" height="37.5" fill="white"/>
</clipPath>
</defs>
</svg>
