<svg width="30" height="30" viewBox="0 0 30 30" fill="none" xmlns="http://www.w3.org/2000/svg">
<path fill-rule="evenodd" clip-rule="evenodd" d="M21.25 2.5H8.75C5.29822 2.5 2.5 5.29822 2.5 8.75V21.25C2.5 24.7018 5.29822 27.5 8.75 27.5H21.25C24.7018 27.5 27.5 24.7018 27.5 21.25V8.75C27.5 5.29822 24.7018 2.5 21.25 2.5ZM20.0001 14.2124C20.1544 15.2527 19.9767 16.3152 19.4923 17.2487C19.0079 18.1822 18.2416 18.9392 17.3022 19.412C16.3628 19.8848 15.2982 20.0494 14.2599 19.8823C13.2215 19.7152 12.2623 19.225 11.5187 18.4813C10.775 17.7377 10.2848 16.7785 10.1177 15.7402C9.95063 14.7018 10.1152 13.6373 10.588 12.6979C11.0609 11.7585 11.8179 10.9921 12.7514 10.5077C13.6849 10.0233 14.7473 9.84562 15.7876 9.99989C16.8488 10.1572 17.8312 10.6517 18.5897 11.4103C19.3483 12.1688 19.8428 13.1512 20.0001 14.2124ZM24.5393 9.48857C24.7209 9.13851 24.7876 8.74008 24.7297 8.34997C24.6707 7.95204 24.4853 7.58363 24.2008 7.29918C23.9164 7.01472 23.548 6.82929 23.15 6.77028C22.7599 6.71243 22.3615 6.77907 22.0114 6.96071C21.6614 7.14235 21.3775 7.42974 21.2002 7.78202C21.0229 8.13429 20.9612 8.53351 21.0238 8.92288C21.0865 9.31225 21.2703 9.67195 21.5492 9.95082C21.828 10.2297 22.1877 10.4135 22.5771 10.4762C22.9665 10.5388 23.3657 10.4771 23.718 10.2998C24.0703 10.1225 24.3577 9.83863 24.5393 9.48857Z" fill="white"/>
</svg>
