<svg width="1511" height="1881" viewBox="0 0 1511 1881" fill="none" xmlns="http://www.w3.org/2000/svg">
<g opacity="0.05">
<path d="M852.393 1401.85C840.513 1378.09 822.3 1369.14 795.963 1345.42C800.921 1328.33 810.813 1312.75 822.693 1312.75C840.273 1336.85 848.453 1351.37 861.303 1378.09C855.968 1381.96 850.978 1396.77 852.393 1401.85Z" fill="white"/>
<path d="M837.543 1410.76C836.983 1406.27 846.034 1411.05 858.333 1416.7C864.273 1419.67 864.273 1416.7 858.333 1413.73L813.781 1387C798.933 1378.09 775.173 1407.79 834.57 1431.54C837.543 1432.73 834.97 1422.16 837.543 1410.76Z" fill="white"/>
<path d="M923.948 1354.24C912.535 1352.17 910.598 1356.4 903.256 1369.23C897.258 1360.36 892.617 1286.14 922.277 1280L923.948 1354.24Z" fill="white"/>
<path d="M885.063 1389.97C886.374 1393.28 885.063 1395.91 882.093 1392.94C857.637 1357.55 844.161 1308.83 846.453 1300.87C851.521 1274.76 859.735 1272.71 879.123 1268.2C887.297 1266.29 888.033 1309.78 893.973 1357.3C882.093 1360.27 876.011 1367.09 885.063 1389.97Z" fill="white"/>
<path d="M807.842 1443.43C806.406 1438.4 837.542 1440.46 837.542 1446.4C834.572 1482.04 888.448 1532.53 927.058 1523.62L927.236 1535.5C858.926 1547.38 813.779 1464.22 807.842 1443.43Z" fill="white"/>
<path d="M902.885 1461.25C879.125 1444.44 894.686 1517.68 927.357 1511.74L927.535 1520.65C874.073 1523.62 855.363 1443.43 882.094 1431.55C885.063 1428.58 890.764 1442.79 893.976 1440.46C895.667 1439.58 898.753 1438.62 896.946 1437.49C873.183 1422.64 908.824 1392.94 908.826 1434.52C909.169 1437.96 914.764 1437.49 914.766 1434.52C908.366 1412.98 910.176 1408.35 925.337 1410.76L926.287 1464.22C921.569 1472.29 912.414 1467.99 902.885 1461.25Z" fill="white"/>
<circle cx="778.533" cy="1645.47" r="54.6482" transform="rotate(2.47122 778.533 1645.47)" stroke="white" stroke-width="21.3841" stroke-dasharray="14.26 8.91"/>
<path d="M803.092 1645.39C803.092 1658.51 792.454 1669.15 779.332 1669.15C766.209 1669.15 755.572 1658.51 755.572 1645.39C755.572 1632.26 766.209 1621.63 779.332 1621.63C792.454 1621.63 803.092 1632.26 803.092 1645.39Z" fill="white"/>
<path fill-rule="evenodd" clip-rule="evenodd" d="M680.129 893.974L833.685 893.974C876.922 995.276 901.343 1088.78 914.46 1188.01C900.068 1191.93 903.358 1235.96 893.975 1250.38C890.546 1240.09 890.086 1219.91 889.739 1204.69C889.484 1193.53 889.29 1185.04 888.035 1185.04C879.124 1182.07 861.691 1225.17 862.634 1268.2C862.188 1268.58 861.745 1268.97 861.304 1269.36C853.99 1261.33 840.101 1252.9 831.088 1247.43C825.461 1244.02 821.735 1241.76 822.694 1241.47C891.005 1220.68 795.964 1152.36 807.844 1241.47C810.472 1256.73 822.028 1272.4 829.46 1282.48C835.092 1290.11 838.356 1294.54 833.577 1293.15C818.21 1278.07 777.821 1247.41 775.174 1247.41C771.221 1246.09 771.945 1248.86 773.196 1253.66C774.764 1259.66 777.161 1268.84 772.204 1277.11C762.261 1295.07 758.828 1304.57 763.294 1318.69C770.685 1334.38 782.871 1345.86 814.527 1369.62C820.214 1374.79 818.108 1382.63 813.784 1378.09C792.994 1354.33 763.294 1336.51 760.324 1336.51C754.046 1331.39 717.24 1353.13 715.774 1369.18C713.876 1401.14 732.099 1414.23 792.994 1430.6C705.949 1425.85 722.536 1545.42 840.054 1485.88C840.69 1486.86 841.337 1487.84 841.992 1488.8C816.669 1508.79 794.033 1528.06 798.934 1532.53C826.875 1557.99 861.304 1556.29 884.049 1525.81C885.76 1526.58 887.49 1527.29 889.238 1527.93C882.094 1550.35 905.855 1574.11 926.817 1574.11C911.82 1586.5 905.698 1590.12 902.885 1588.96C846.454 1571.14 876.154 1642.42 926.678 1584.3C925.506 1667.26 923.67 1731.52 923.67 1731.52L920.7 1752.31C920.072 1755.43 919.695 1757.73 919.385 1759.63C919.239 1760.52 919.108 1761.32 918.972 1762.07C922.064 1724.29 894.858 1691.06 852.394 1672.12C888.035 1666.18 876.154 1612.72 841.846 1623.24C841.428 1622.13 840.984 1621.03 840.514 1619.94C882.094 1594.9 831.604 1547.38 807.844 1584.43C806.867 1583.92 805.877 1583.43 804.874 1582.97C813.784 1541.44 751.414 1535.5 756.47 1580.59C755.142 1581.03 753.832 1581.51 752.542 1582.04C740.089 1558.97 718.413 1566.26 708.75 1580.59C682.388 1551.62 676.735 1515.16 677.317 1476.02C679.91 1455.77 688.813 1455.01 708.047 1453.35L708.064 1453.35C711.321 1453.07 714.875 1452.77 718.744 1452.34C763.294 1437.49 694.984 1387 678.293 1452.34C678.862 1443.21 679.604 1434 680.349 1424.75C681.442 1411.18 682.54 1397.55 683.104 1384.03C683.538 1373.59 683.624 1364.01 683.393 1355.15C690.965 1349.78 696.01 1349.34 706.864 1351.36C731.937 1355.83 712.804 1318.69 683.151 1348.39C682.859 1342.09 682.399 1336.17 681.782 1330.57C691.811 1321.54 694.956 1322.89 700.539 1325.3C702.305 1326.06 704.315 1326.92 706.864 1327.6C730.624 1333.88 709.834 1283.05 681.23 1325.96C680.397 1319.53 679.348 1313.52 678.106 1307.87C683.461 1297.9 691.961 1297.9 703.784 1297.9H703.894C730.624 1297.9 692.014 1265.23 676.429 1300.87C674.333 1292.81 671.825 1285.45 668.98 1278.47C675.312 1269.74 680.482 1268.42 692.014 1271.17C721.714 1268.2 689.044 1235.53 665.821 1271.17C663.011 1265.01 659.94 1259.09 656.664 1253.18C657.827 1242.43 659.344 1241.47 677.164 1241.47C709.759 1241.47 662.531 1200.08 649.562 1250.88C649.46 1251.02 649.423 1251.14 649.474 1251.23C608.853 1211.77 592.585 1278.47 620.733 1259.29C629.926 1251.31 641.123 1249.32 644.493 1253.35C645.51 1255.33 646.447 1257.11 647.333 1258.79C649.528 1262.96 651.41 1266.53 653.403 1271.17C602.333 1254.09 617.763 1309.78 635.583 1283.05C642.36 1277.09 647.341 1276.02 655.546 1277.11C658.961 1285.41 661.789 1293.56 664.067 1301.87C614.793 1280.08 626.673 1333.54 646.439 1307.87C652.826 1302.37 656.458 1303.66 663.384 1306.11C664.011 1306.34 664.664 1306.57 665.349 1306.81C667.004 1313.54 668.308 1320.41 669.281 1327.6C623.703 1301.87 626.673 1354.33 650.433 1333.54C659.168 1329.31 663.341 1329.76 670.002 1333.54C670.714 1340.14 671.025 1344.06 671.224 1351.36C614.793 1330.57 632.613 1384.03 653.403 1357.3C655.713 1354.33 663.004 1354.87 671.428 1357.3C671.746 1375.12 670.625 1395.36 668.254 1419.67C668.086 1421.38 667.926 1423.07 667.773 1424.75C647.463 1348.39 579.153 1416.7 644.493 1419.67C651.229 1419.31 655.479 1421.27 666.495 1440.46C660.021 1532.28 676.996 1556.45 696.535 1584.27C698.952 1587.71 701.409 1591.21 703.865 1594.9C703.669 1602.41 707.325 1609.91 716.861 1615.18C716.485 1615.94 716.122 1616.71 715.774 1617.48C677.164 1609.75 668.254 1669.15 713.707 1669.15C713.983 1669.96 714.273 1670.76 714.578 1671.56C677.164 1695.88 727.654 1743.4 747.781 1707.76C748.826 1708.24 749.887 1708.7 750.964 1709.13C742.504 1752.31 807.844 1755.28 801.581 1709.03C802.293 1708.77 803 1708.5 803.701 1708.22C816.754 1731.52 861.304 1725.58 849.424 1684C894.161 1712.58 914.353 1728.75 914.235 1775.16C857.958 1701.92 826.163 1775.58 855.364 1782.01C866.915 1784.55 874.666 1783.9 880.829 1783.38C890.248 1782.59 895.959 1782.11 905.855 1793.82C899.085 1805.97 889.503 1818.69 880.839 1828.1C867.255 1819.9 849.652 1812.89 831.604 1808.74C831.491 1808.7 831.342 1808.64 831.158 1808.57C829.379 1807.9 824.354 1806.01 817.551 1805.83L816.593 1805.87C806.463 1806.3 796.497 1806.73 790.024 1802.8C780.289 1796.89 772.282 1787.29 772.204 1782.01C771.555 1772.6 766.855 1766.28 760.324 1761.22C753.29 1757.91 748.845 1757.98 742.504 1761.22C722.516 1774.87 730.69 1810.38 778.144 1814.68C763.582 1826.2 751.407 1840.35 757.354 1856.26C762.355 1870.29 784.747 1874.85 795.964 1859.23C817.037 1824.61 835.141 1813.8 874.967 1833.88C793.211 1910.39 633.787 1900.84 593.999 1752.31L591.029 1731.52C591.029 1731.52 582.119 1419.67 591.029 1283.05C599.938 1146.42 624.518 1026.89 680.129 893.974ZM831.108 1074.81C826.199 1091.18 808.813 1102.45 772.417 1126.04C768.449 1128.61 764.256 1131.33 759.828 1134.21L759.332 1133.88C755.322 1131.2 751.425 1128.62 747.66 1126.13L747.624 1126.1C716.669 1105.6 694.661 1091.03 692.013 1075.14C680.842 1037.99 691.773 1012.57 715.774 1003.86C723.587 1001.03 728.297 1000.93 736.564 1003.86C744.098 1006.38 748.444 1015.74 753.44 1030.32L753.443 1030.32L753.446 1030.33C754.472 1032.96 755.561 1035.75 756.749 1038.69L757.438 1040.4C758.053 1041.92 758.623 1043.56 759.23 1045.31C759.577 1046.31 759.937 1047.35 760.324 1048.41C761.102 1046.72 761.707 1045.45 762.267 1044.27C762.868 1043.01 763.416 1041.85 764.071 1040.4C764.942 1038.48 765.771 1036.63 766.568 1034.85L766.774 1034.39C774.805 1016.56 779.319 1006.54 790.024 1003.86C798.307 1001.79 802.269 1002.59 807.844 1003.86C834.263 1016.61 840.42 1038.05 831.108 1074.81Z" fill="white"/>
<path d="M570.238 700.923C584.186 701.181 589.059 705.762 593.998 709.833C599.533 702.746 604.359 695.664 614.787 689.043C610.182 676.184 602.709 669.353 585.087 662.313C573.683 672.046 570.042 682.033 570.238 700.923Z" fill="white"/>
<path fill-rule="evenodd" clip-rule="evenodd" d="M611.819 1003.86L659.339 861.304H683.1V617.763L497.455 547.919V841.95L611.819 1003.86ZM611.817 804.874C600.997 857.586 578.649 882.018 552.417 902.884L546.477 902.884V896.944C567.487 876.296 571.547 863.269 570.237 837.544C566.329 841.501 563.808 842.999 558.357 843.484C539.237 846.708 526.794 811.346 558.357 807.843C572.87 809.016 582.468 817.2 579.147 855.364C591.682 838.311 598.706 810.825 576.177 781.113C572.329 793.16 567.588 795.183 558.357 795.963C538.362 792.763 533.293 771.598 552.417 760.323C556.943 759.076 559.574 759.178 564.297 760.323C587.971 769.885 600.506 806.042 596.967 819.723C604.31 803.373 603.417 782.082 599.937 739.533C567.505 744.799 550.609 735.228 531.627 700.923L543.507 703.893C529.828 687.175 530.233 673.617 540.537 644.493C549.656 650.719 557.86 652.273 567.267 653.403C555.906 640.958 548.765 633.406 549.447 614.793C550.521 609.754 554.544 600.632 561.327 585.092C580.89 599.91 589.038 606.883 593.997 614.793C596.19 618.945 595.654 630.066 593.997 647.463C597.655 636.673 600.447 633.884 611.817 623.703C633.84 644.584 644.834 656.166 635.577 674.193L647.457 671.223C646.72 716.151 635.112 726.187 608.847 736.563C615.029 763.847 613.773 776.435 611.817 804.874Z" fill="white"/>
<path d="M899.908 1003.86L855.358 861.304H831.597V617.763L1015.74 546.482V840.514L899.908 1003.86Z" fill="white"/>
<path d="M712.8 617.763V867.244H801.9V617.763H712.8Z" fill="white"/>
<path fill-rule="evenodd" clip-rule="evenodd" d="M601.312 1191.85L619.598 1094.33C612.727 1095.84 608.972 1095.94 602.7 1092.96C595.578 1089.19 592.362 1086.56 587.85 1081.08L581.91 1066.23L573 1048.41L561.119 1018.71L549.239 991.984L537.312 960.235L531.217 944.997L525.479 911.794C516.921 902.38 514.019 897.953 503.788 891.004L509.884 908.426L512.931 935.854C515.904 962.449 515.781 973.113 509.884 978.521C509.142 983.278 507.676 985.887 503.788 990.712C503.153 996.377 485.775 998.85 472.019 991.984C458.263 985.118 398.507 962.031 397.769 959.314C396.115 958.983 327.712 917.157 311.638 896.944C300.955 883.509 287.878 858.334 287.878 858.334C279.868 841.492 280.944 832.693 278.275 820.097L278.264 820.045C274.452 794.969 271.467 779.552 278.968 757.353L284.359 737.759L290.454 710.33L296.55 692.044C299.169 679.08 300.39 675.375 302.645 667.663L308.74 637.187L314.835 600.615L320.931 576.234L327.026 554.901L333.121 533.568L339.216 515.282L345.312 496.996L350.249 478.172L353.219 460.352C360.616 427.569 359.075 420.647 359.159 400.952C363.738 378.37 365.444 363.408 368.069 335.611L374.009 294.031C377.494 285.59 379.325 281.463 381.883 277.567L387.978 247.091L368.069 279.181L356.189 305.911L350.249 323.731L344.309 344.521L338.369 371.252C334.206 380.495 332.475 388.07 329.458 403.922L326.488 412.832L320.548 430.652L305.698 466.292L293.818 504.902L281.938 534.602L275.998 552.422L267.088 573.212C263.586 577.139 261.644 577.945 258.178 576.234C250.18 562.005 245.059 555.256 246.298 546.482L240.358 504.902L235.597 457.377L229.502 405.567L223.407 368.996V259.281L229.502 222.71L235.597 186.138L241.692 155.662L247.788 125.186C248.895 117.736 252.323 113.588 256.93 106.9C262.375 98.9977 264.626 94.8763 269.121 85.5664C273.616 76.2565 279.36 72.6266 281.938 65.3403C284.503 58.8523 288.241 59.7479 299.758 38.6102C311.79 30.4693 317.973 22.116 326.488 17.8201L344.309 0L305.698 8.91004L287.878 26.7301L256.93 65.3403L243.328 86.1304L222.538 124.741L210.658 163.351L198.778 204.931L192.838 234.631L186.898 264.331C184.307 276.13 183.154 282.691 180.958 297.001C177.959 307.354 173.822 321.588 172.048 332.641C169.472 345.643 175.51 383.148 177.988 397.982C177.53 399.789 184.161 423.321 186.898 436.592L192.93 557.949L195.808 576.183C199.246 583.41 199.189 584.075 201.748 591.033C201.627 599.968 203.854 606.48 205.121 612.806L217.311 643.282C218.303 658.478 220.506 657.395 217.311 673.758C214.995 685.626 214.624 704.383 213.628 709.833C212.006 721.508 211.574 730.32 210.658 742.503C210.177 759.772 209.586 768.571 210.658 784.083C211.349 801.372 209.337 814.117 214.264 832.235C216.558 843.393 219.568 846.454 219.568 846.454C222.261 851.89 226.693 861.91 225.508 873.184C220.172 872.75 217.595 871.631 211.719 868.807C200.58 859.414 199.138 852.151 192.998 844.51L192.93 844.426L174.645 826.14L156.359 807.854C147.288 797.964 144.468 791.455 138.073 780.425C135.316 768.748 132.78 752.847 131.978 743.854C131.176 734.861 130.333 728.912 125.882 710.33C121.432 691.748 119.787 679.854 119.787 679.854L113.692 643.282L107.834 613.991C105.154 592.156 103.313 580.306 98.4539 560.996L98.2793 560.37C91.4611 535.377 89.4932 530.404 82.9474 522.722C81.6776 513.391 79.4676 511.414 83.2157 503.091L94.8275 481.142L106.708 460.352C110.642 452.656 112.648 451.442 115.618 442.532L118.588 430.652V424.712L103.738 442.139L88.8874 463.322C73.6493 481.608 74.8893 470.778 74.0374 457.382L64.93 429.948L58.8347 387.281L52.7394 344.615V222.71L43.5966 167.852L41.3672 136.621L29.4872 175.231L20.5771 216.811L14.6371 276.211L16.1679 387.281L22.2632 475.202C22.2632 475.202 32.4572 519.752 32.4572 522.722C32.4572 525.692 41.111 530.601 38.3972 546.482C38.3972 547.207 39.9786 553.004 38.3972 546.482L22.2632 576.234L10.0727 602.913C6.63592 617.531 4.36748 617.054 2.75706 631.092C-0.158375 660.142 -1.60926 676.311 2.75706 709.833C8.21667 727.988 13.6072 741.974 22.2632 757.353C27.6116 771.148 29.3163 775.217 38.3972 790.023L67.9776 837.544L127.498 893.188L151.258 908.824C162.083 918.647 164.93 920.418 177.988 929.614C195.555 939.341 203.287 948.885 223.407 954.14L278.264 978.521L327.026 999.854L381.883 1039.47L436.741 1073L495.779 1107.81C517.243 1117.82 533.609 1128.42 537.312 1137C550.304 1155.67 555.248 1159.2 564.741 1167.47L601.312 1191.85ZM52.7394 631.092C48.0242 607.065 47.3073 612.806 47.3073 612.806C47.3073 612.806 35.4272 621.949 35.4272 637.187L38.3972 662.313C39.8142 683.41 45.1556 691.877 44.3372 692.013L53.2473 715.773C53.2473 715.773 74.0729 746.901 74.0729 743.854C74.0729 740.806 71.0674 721.713 71.0674 721.713C68.136 714.957 67.0445 711.05 65.1273 700.923C61.5175 684.618 56.1126 678.695 55.7871 664.616C54.2721 651.29 53.3916 643.951 52.7394 631.092Z" fill="white"/>
<path fill-rule="evenodd" clip-rule="evenodd" d="M909.289 1191.85L891.004 1094.33C897.874 1095.84 901.63 1095.94 907.902 1092.96C915.024 1089.19 918.239 1086.56 922.752 1081.08L928.692 1066.23L937.602 1048.41L949.482 1018.71L961.362 991.984L973.29 960.235L979.385 944.997L985.122 911.794C993.681 902.38 996.583 897.953 1006.81 891.004L1000.72 908.426L997.671 935.854C994.698 962.449 994.82 973.113 1000.72 978.521C1001.46 983.278 1002.93 985.887 1006.81 990.712C1007.45 996.377 1024.83 998.85 1038.58 991.984C1052.34 985.118 1112.09 962.031 1112.83 959.314C1114.49 958.983 1182.89 917.157 1198.96 896.944C1209.65 883.509 1222.72 858.334 1222.72 858.334C1230.73 841.492 1229.66 832.693 1232.33 820.097L1232.34 820.045C1236.15 794.969 1239.14 779.552 1231.63 757.353L1226.24 737.759L1220.15 710.33L1214.05 692.044C1211.43 679.08 1210.21 675.375 1207.96 667.663L1201.86 637.187L1195.77 600.615L1189.67 576.234L1183.58 554.901L1177.48 533.568L1171.39 515.282L1165.29 496.996L1160.35 478.172L1157.38 460.352C1149.99 427.569 1151.53 420.647 1151.44 400.952C1146.86 378.37 1145.16 363.408 1142.53 335.611L1136.59 294.031C1133.11 285.59 1131.28 281.463 1128.72 277.567L1122.62 247.091L1142.53 279.181L1154.41 305.911L1160.35 323.731L1166.29 344.521L1172.23 371.252C1176.4 380.495 1178.13 388.07 1181.14 403.922L1184.11 412.832L1190.05 430.652L1204.9 466.292L1216.78 504.902L1228.66 534.602L1234.6 552.422L1243.51 573.212C1247.02 577.139 1248.96 577.945 1252.42 576.234C1260.42 562.005 1265.54 555.256 1264.3 546.482L1270.24 504.902L1275 457.377L1281.1 405.567L1287.2 368.996V259.281L1281.1 222.71L1275 186.138L1268.91 155.662L1262.81 125.186C1261.71 117.736 1258.28 113.588 1253.67 106.9C1248.23 98.9977 1245.98 94.8763 1241.48 85.5664C1236.99 76.2565 1231.24 72.6266 1228.66 65.3403C1226.1 58.8523 1222.36 59.7479 1210.84 38.6102C1198.81 30.4693 1192.63 22.116 1184.11 17.8201L1166.29 0L1204.9 8.91004L1222.72 26.7301L1253.67 65.3403L1267.27 86.1304L1288.06 124.741L1299.94 163.351L1311.82 204.931L1317.76 234.631L1323.7 264.331C1326.3 276.13 1327.45 282.691 1329.64 297.001C1332.64 307.354 1336.78 321.588 1338.55 332.641C1341.13 345.643 1335.09 383.148 1332.61 397.982C1333.07 399.789 1326.44 423.321 1323.7 436.592L1317.67 557.949L1314.79 576.183C1311.36 583.41 1311.41 584.075 1308.85 591.033C1308.97 599.968 1306.75 606.48 1305.48 612.806L1293.29 643.282C1292.3 658.478 1290.1 657.395 1293.29 673.758C1295.61 685.626 1295.98 704.383 1296.97 709.833C1298.6 721.508 1299.03 730.32 1299.94 742.503C1300.42 759.772 1301.02 768.571 1299.94 784.083C1299.25 801.372 1301.27 814.117 1296.34 832.235C1294.04 843.393 1291.03 846.454 1291.03 846.454C1288.94 854.53 1284.29 865.534 1285.09 873.184C1292 872.085 1295.45 870.724 1298.88 868.807C1310.02 859.414 1311.46 852.151 1317.6 844.51L1317.67 844.426L1335.96 826.14L1354.24 807.854C1363.31 797.964 1366.13 791.455 1372.53 780.425C1375.29 768.748 1377.82 752.847 1378.62 743.854C1379.43 734.861 1380.27 728.912 1384.72 710.33C1389.17 691.748 1390.81 679.854 1390.81 679.854L1396.91 643.282L1402.77 613.991C1405.45 592.156 1407.29 580.306 1412.15 560.996L1412.32 560.37C1419.14 535.377 1421.11 530.404 1427.65 522.722C1428.92 513.391 1431.13 511.414 1427.39 503.091L1415.77 481.142L1403.89 460.352C1399.96 452.656 1397.95 451.442 1394.98 442.532L1392.01 430.652V424.712L1406.86 442.139L1421.71 463.322C1436.95 481.608 1435.71 470.778 1436.56 457.382L1445.67 429.948L1451.77 387.281L1457.86 344.615V222.71L1467.01 167.852L1469.23 136.621L1481.11 175.231L1490.02 216.811L1495.96 276.211L1494.43 387.281L1488.34 475.202C1488.34 475.202 1478.14 519.752 1478.14 522.722C1478.14 525.692 1469.49 530.601 1472.2 546.482C1472.2 547.207 1470.62 553.004 1472.2 546.482L1488.34 576.234L1500.53 602.913C1503.97 617.531 1506.23 617.054 1507.84 631.092C1510.76 660.142 1512.21 676.311 1507.84 709.833C1502.39 727.988 1496.99 741.974 1488.34 757.353C1482.99 771.148 1481.29 775.217 1472.2 790.023L1442.62 837.544L1383.1 893.188L1359.34 908.824C1348.52 918.647 1345.67 920.418 1332.61 929.614C1315.05 939.341 1307.31 948.885 1287.2 954.14L1232.34 978.521L1183.58 999.854L1128.72 1039.47L1073.86 1073L1014.82 1107.81C993.359 1117.82 976.993 1128.42 973.29 1137C960.297 1155.67 955.353 1159.2 945.861 1167.47L909.289 1191.85ZM1457.86 631.092C1462.58 607.065 1463.29 612.806 1463.29 612.806C1463.29 612.806 1475.17 621.949 1475.17 637.187L1472.2 662.313C1470.79 683.41 1465.45 691.877 1466.26 692.013L1457.35 715.773C1457.35 715.773 1436.53 746.901 1436.53 743.854C1436.53 740.806 1439.53 721.713 1439.53 721.713C1442.47 714.957 1443.56 711.05 1445.47 700.923C1449.08 684.618 1454.49 678.695 1454.81 664.616C1456.33 651.29 1457.21 643.951 1457.86 631.092Z" fill="white"/>
</g>
</svg>
