<svg width="374" height="465" viewBox="0 0 374 465" fill="none" xmlns="http://www.w3.org/2000/svg">
<path d="M210.719 346.549C207.782 340.675 203.279 338.464 196.769 332.599C197.994 328.375 200.44 324.522 203.376 324.522C207.722 330.48 209.745 334.071 212.921 340.675C211.602 341.634 210.369 345.294 210.719 346.549Z" fill="white"/>
<path d="M207.048 348.751C206.909 347.643 209.147 348.823 212.187 350.22C213.655 350.954 213.655 350.22 212.187 349.486L201.173 342.878C197.503 340.675 191.629 348.017 206.313 353.89C207.048 354.184 206.411 351.57 207.048 348.751Z" fill="white"/>
<path d="M228.407 334.78C225.586 334.268 225.107 335.314 223.292 338.485C221.809 336.292 220.662 317.944 227.994 316.427L228.407 334.78Z" fill="white"/>
<path d="M218.795 343.612C219.119 344.431 218.794 345.08 218.06 344.346C212.014 335.598 208.683 323.555 209.25 321.585C210.503 315.133 212.533 314.625 217.326 313.509C219.347 313.039 219.529 323.788 220.997 335.535C218.06 336.27 216.557 337.957 218.795 343.612Z" fill="white"/>
<path d="M199.705 356.828C199.35 355.585 207.047 356.094 207.047 357.562C206.313 366.373 219.632 378.855 229.177 376.652L229.221 379.589C212.334 382.526 201.173 361.968 199.705 356.828Z" fill="white"/>
<path d="M223.2 361.233C217.327 357.079 221.174 375.183 229.25 373.715L229.294 375.917C216.078 376.652 211.453 356.828 218.061 353.891C218.795 353.157 220.204 356.671 220.998 356.094C221.416 355.878 222.179 355.639 221.732 355.359C215.858 351.688 224.668 344.346 224.669 354.625C224.754 355.477 226.137 355.36 226.137 354.625C224.555 349.302 225.003 348.157 228.751 348.752L228.986 361.967C227.819 363.962 225.556 362.899 223.2 361.233Z" fill="white"/>
<circle cx="192.46" cy="406.776" r="10.692" transform="rotate(2.47122 192.46 406.776)" stroke="white" stroke-width="10.9213" stroke-dasharray="14.26 8.91"/>
<path d="M198.532 406.755C198.532 409.999 195.902 412.629 192.658 412.629C189.414 412.629 186.784 409.999 186.784 406.755C186.784 403.511 189.414 400.881 192.658 400.881C195.902 400.881 198.532 403.511 198.532 406.755Z" fill="white"/>
<path fill-rule="evenodd" clip-rule="evenodd" d="M168.134 220.999L206.095 220.999C216.783 246.042 222.82 269.158 226.063 293.686C222.505 294.657 223.318 305.541 220.999 309.105C220.151 306.562 220.037 301.574 219.952 297.81C219.889 295.052 219.841 292.952 219.53 292.952C217.328 292.218 213.018 302.873 213.251 313.51C213.141 313.605 213.031 313.701 212.922 313.798C211.114 311.813 207.681 309.729 205.453 308.377C204.062 307.533 203.14 306.974 203.378 306.902C220.264 301.763 196.77 284.876 199.706 306.902C200.356 310.677 203.213 314.55 205.05 317.041C206.442 318.928 207.249 320.023 206.068 319.68C202.269 315.951 192.284 308.37 191.63 308.37C190.653 308.045 190.832 308.731 191.141 309.916C191.529 311.401 192.121 313.67 190.896 315.713C188.438 320.153 187.589 322.502 188.693 325.992C190.52 329.872 193.533 332.709 201.358 338.583C202.764 339.86 202.244 341.798 201.175 340.676C196.035 334.802 188.693 330.397 187.959 330.397C186.407 329.133 177.308 334.506 176.946 338.473C176.477 346.374 180.982 349.612 196.035 353.659C174.517 352.483 178.618 382.041 207.669 367.323C207.826 367.567 207.986 367.808 208.148 368.046C201.888 372.987 196.292 377.751 197.504 378.855C204.411 385.149 212.922 384.729 218.545 377.195C218.968 377.385 219.396 377.56 219.828 377.719C218.062 383.26 223.936 389.134 229.118 389.134C225.41 392.198 223.897 393.093 223.201 392.805C209.251 388.4 216.593 406.021 229.083 391.654C228.794 412.162 228.34 428.047 228.34 428.047L227.606 433.187C227.45 433.96 227.357 434.528 227.28 434.996C227.244 435.217 227.212 435.415 227.178 435.601C227.943 426.259 221.217 418.045 210.72 413.363C219.53 411.895 216.593 398.679 208.112 401.28C208.009 401.006 207.899 400.734 207.783 400.465C218.062 394.273 205.58 382.526 199.706 391.686C199.465 391.56 199.22 391.44 198.972 391.326C201.175 381.058 185.756 379.589 187.006 390.736C186.678 390.846 186.354 390.965 186.035 391.094C182.957 385.392 177.598 387.195 175.21 390.736C168.693 383.574 167.295 374.563 167.439 364.886C168.08 359.88 170.281 359.691 175.036 359.283L175.04 359.282C175.845 359.213 176.724 359.137 177.68 359.031C188.693 355.36 171.806 342.879 167.68 359.031C167.821 356.775 168.004 354.497 168.189 352.211C168.459 348.858 168.73 345.488 168.87 342.144C168.977 339.565 168.998 337.196 168.941 335.005C170.813 333.678 172.06 333.57 174.743 334.068C180.941 335.173 176.212 325.992 168.881 333.335C168.809 331.778 168.695 330.313 168.543 328.928C171.022 326.697 171.8 327.032 173.18 327.626C173.616 327.814 174.113 328.027 174.743 328.194C180.617 329.749 175.477 317.181 168.406 327.79C168.2 326.199 167.941 324.716 167.634 323.317C168.958 320.852 171.059 320.852 173.982 320.852H174.009C180.617 320.852 171.072 312.776 167.219 321.586C166.701 319.596 166.081 317.775 165.378 316.05C166.943 313.892 168.221 313.566 171.072 314.244C178.414 313.51 170.338 305.434 164.597 314.244C163.902 312.723 163.143 311.259 162.333 309.798C162.621 307.139 162.996 306.902 167.401 306.902C175.459 306.902 163.784 296.67 160.578 309.23C160.553 309.265 160.543 309.295 160.556 309.316C150.514 299.56 146.492 316.05 153.451 311.307C155.724 309.336 158.492 308.844 159.325 309.839C159.576 310.329 159.808 310.769 160.027 311.185C160.569 312.215 161.035 313.097 161.527 314.244C148.902 310.023 152.717 323.789 157.122 317.181C158.797 315.709 160.029 315.445 162.057 315.713C162.901 317.765 163.6 319.78 164.163 321.835C151.983 316.447 154.919 329.663 159.806 323.317C161.384 321.958 162.282 322.276 163.995 322.884C164.15 322.939 164.311 322.996 164.481 323.055C164.89 324.719 165.212 326.419 165.452 328.194C154.185 321.835 154.919 334.802 160.793 329.663C162.952 328.619 163.984 328.729 165.631 329.663C165.807 331.296 165.883 332.265 165.933 334.068C151.983 328.928 156.388 342.144 161.527 335.536C162.098 334.802 163.901 334.938 165.983 335.536C166.062 339.943 165.785 344.947 165.198 350.955C165.157 351.379 165.118 351.797 165.08 352.211C160.059 333.334 143.172 350.221 159.325 350.955C160.99 350.866 162.041 351.351 164.764 356.094C163.163 378.793 167.36 384.768 172.19 391.646C172.787 392.497 173.395 393.362 174.002 394.273C173.953 396.13 174.857 397.985 177.215 399.286C177.122 399.475 177.032 399.665 176.946 399.857C167.401 397.945 165.198 412.629 176.435 412.629C176.503 412.829 176.575 413.028 176.65 413.225C167.401 419.237 179.883 430.984 184.858 422.174C185.117 422.294 185.379 422.407 185.645 422.513C183.554 433.187 199.706 433.921 198.158 422.489C198.334 422.425 198.509 422.358 198.682 422.288C201.909 428.047 212.922 426.579 209.985 416.3C221.045 423.365 226.036 427.364 226.007 438.837C212.095 420.729 204.235 438.939 211.454 440.529C214.309 441.158 216.225 440.997 217.749 440.869C220.077 440.674 221.489 440.555 223.936 443.449C222.262 446.453 219.893 449.598 217.751 451.924C214.393 449.896 210.042 448.164 205.58 447.137C205.552 447.127 205.515 447.113 205.47 447.096C205.03 446.931 203.788 446.463 202.106 446.418L201.869 446.428C199.365 446.535 196.901 446.64 195.301 445.668C192.895 444.207 190.915 441.835 190.896 440.529C190.736 438.204 189.573 436.64 187.959 435.389C186.22 434.572 185.121 434.588 183.554 435.389C178.613 438.765 180.633 447.542 192.364 448.605C188.764 451.453 185.755 454.951 187.225 458.884C188.461 462.354 193.997 463.479 196.77 459.618C201.979 451.06 206.455 448.389 216.3 453.353C196.089 472.265 156.678 469.905 146.842 433.187L146.108 428.047C146.108 428.047 143.905 350.955 146.108 317.181C148.31 283.407 154.387 253.857 168.134 220.999ZM205.458 265.704C204.244 269.75 199.946 272.536 190.949 278.367C189.968 279.003 188.931 279.675 187.836 280.388L187.714 280.306C186.722 279.644 185.759 279.005 184.828 278.389L184.82 278.383C177.167 273.316 171.727 269.712 171.072 265.786C168.311 256.601 171.013 250.318 176.946 248.165C178.877 247.464 180.042 247.44 182.085 248.165C183.948 248.786 185.022 251.102 186.257 254.704L186.258 254.706L186.259 254.708C186.512 255.358 186.782 256.048 187.075 256.775L187.246 257.197C187.398 257.573 187.539 257.979 187.689 258.411C187.775 258.659 187.863 258.915 187.959 259.178C188.151 258.759 188.301 258.444 188.439 258.154C188.588 257.841 188.724 257.556 188.885 257.197C189.101 256.722 189.306 256.264 189.503 255.824L189.554 255.711C191.539 251.304 192.655 248.827 195.301 248.165C197.349 247.653 198.328 247.85 199.706 248.165C206.237 251.315 207.759 256.615 205.458 265.704Z" fill="white"/>
<path d="M140.968 173.274C144.416 173.338 145.62 174.471 146.841 175.477C148.21 173.725 149.403 171.974 151.981 170.337C150.842 167.159 148.995 165.47 144.638 163.729C141.819 166.136 140.919 168.605 140.968 173.274Z" fill="white"/>
<path fill-rule="evenodd" clip-rule="evenodd" d="M151.247 248.164L162.994 212.922H168.868V152.716L122.975 135.45V208.137L151.247 248.164ZM151.246 198.972C148.571 212.003 143.046 218.042 136.562 223.201L135.093 223.201V221.732C140.287 216.628 141.291 213.408 140.967 207.048C140.001 208.026 139.378 208.397 138.03 208.516C133.304 209.314 130.228 200.572 138.03 199.706C141.618 199.996 143.991 202.019 143.17 211.453C146.268 207.238 148.005 200.443 142.435 193.098C141.484 196.076 140.312 196.576 138.03 196.769C133.087 195.978 131.834 190.746 136.562 187.958C137.681 187.65 138.331 187.675 139.499 187.958C145.351 190.322 148.45 199.261 147.575 202.643C149.39 198.601 149.169 193.338 148.309 182.819C140.292 184.121 136.115 181.755 131.422 173.274L134.359 174.008C130.977 169.876 131.078 166.524 133.625 159.324C135.879 160.863 137.907 161.248 140.233 161.527C137.424 158.45 135.659 156.583 135.827 151.982C136.093 150.736 137.088 148.481 138.764 144.64C143.6 148.303 145.615 150.027 146.841 151.982C147.383 153.009 147.25 155.758 146.841 160.058C147.745 157.391 148.435 156.702 151.246 154.185C156.69 159.347 159.408 162.21 157.12 166.666L160.057 165.932C159.874 177.039 157.005 179.52 150.512 182.085C152.04 188.83 151.73 191.941 151.246 198.972Z" fill="white"/>
<path d="M222.464 248.165L211.451 212.922H205.577V152.717L251.099 135.096V207.783L222.464 248.165Z" fill="white"/>
<path d="M176.21 152.717V214.391H198.236V152.717H176.21Z" fill="white"/>
<path fill-rule="evenodd" clip-rule="evenodd" d="M148.65 294.637L153.171 270.528C151.472 270.902 150.544 270.926 148.993 270.191C147.233 269.257 146.438 268.608 145.322 267.254L143.854 263.583L141.651 259.177L138.714 251.835L135.778 245.227L132.829 237.379L131.322 233.612L129.904 225.404C127.788 223.076 127.071 221.982 124.542 220.264L126.048 224.571L126.802 231.352C127.537 237.926 127.506 240.562 126.048 241.899C125.865 243.075 125.503 243.72 124.542 244.913C124.385 246.313 120.089 246.925 116.688 245.227C113.287 243.53 98.5153 237.823 98.3327 237.151C97.9238 237.069 81.0141 226.729 77.0405 221.733C74.3994 218.411 71.1668 212.188 71.1668 212.188C69.1865 208.024 69.4525 205.849 68.7927 202.735L68.79 202.722C67.8476 196.524 67.1097 192.712 68.9641 187.225L70.2968 182.381L71.8036 175.6L73.3104 171.079C73.958 167.875 74.2598 166.959 74.8172 165.052L76.324 157.518L77.8308 148.477L79.3376 142.45L80.8444 137.176L82.3512 131.903L83.858 127.382L85.3648 122.862L86.5853 118.208L87.3195 113.803C89.1481 105.699 88.7672 103.988 88.7879 99.1189C89.9199 93.5366 90.3418 89.8377 90.9906 82.9661L92.459 72.6872C93.3207 70.6005 93.7733 69.58 94.4056 68.617L95.9124 61.083L90.9906 69.0161L88.0537 75.624L86.5853 80.0293L85.1169 85.1688L83.6484 91.7767C82.6194 94.0617 82.1916 95.9343 81.4458 99.8531L80.7116 102.056L79.2431 106.461L75.5721 115.272L72.6352 124.816L69.6984 132.158L68.2299 136.564L66.0273 141.703C65.1615 142.674 64.6815 142.873 63.8247 142.45C61.8475 138.933 60.5816 137.264 60.8878 135.095L59.4194 124.816L58.2424 113.068L56.7356 100.26L55.2288 91.219V64.0966L56.7356 55.0558L58.2424 46.015L59.7492 38.481L61.256 30.947C61.5298 29.1054 62.3772 28.0799 63.5162 26.4266C64.862 24.4731 65.4186 23.4543 66.5298 21.1528C67.641 18.8513 69.061 17.9539 69.6984 16.1527C70.3325 14.5488 71.2565 14.7702 74.1036 9.54478C77.078 7.53228 78.6066 5.46728 80.7116 4.40528L85.1169 0L75.5721 2.20264L71.1668 6.60792L63.5162 16.1527L60.1536 21.2922L55.0141 30.837L52.0772 40.3818L49.1404 50.6607L47.672 58.0029L46.2035 65.345C45.5629 68.2618 45.2779 69.8838 44.7351 73.4214C43.9937 75.9807 42.971 79.4995 42.5325 82.2319C41.8958 85.4461 43.3883 94.7176 44.0009 98.3846C43.8877 98.8314 45.5269 104.649 46.2035 107.929L47.6948 137.93L48.4062 142.437C49.2561 144.224 49.242 144.389 49.8746 146.109C49.8448 148.317 50.3952 149.927 50.7084 151.491L53.722 159.025C53.9671 162.782 54.5117 162.514 53.722 166.559C53.1493 169.493 53.0576 174.13 52.8114 175.477C52.4105 178.363 52.3037 180.542 52.0772 183.553C51.9583 187.822 51.8123 189.998 52.0772 193.832C52.248 198.106 51.7506 201.257 52.9686 205.736C53.5357 208.494 54.2799 209.251 54.2799 209.251C54.9456 210.595 56.0413 213.072 55.7483 215.859C54.4293 215.752 53.7922 215.475 52.3395 214.777C49.5858 212.455 49.2295 210.659 47.7115 208.77L47.6948 208.75L43.1744 204.229L38.654 199.709C36.4116 197.264 35.7144 195.655 34.1336 192.928C33.4521 190.041 32.8251 186.11 32.6268 183.887C32.4285 181.664 32.2202 180.193 31.12 175.6C30.0198 171.006 29.6132 168.066 29.6132 168.066L28.1064 159.025L26.6582 151.784C25.9957 146.386 25.5405 143.457 24.3394 138.683L24.2962 138.528C22.6107 132.35 22.1242 131.121 20.506 129.222C20.1921 126.915 19.6458 126.426 20.5724 124.369L23.4429 118.943L26.3798 113.803C27.3523 111.901 27.8482 111.6 28.5824 109.398L29.3166 106.461V104.993L25.6455 109.301L21.9745 114.537C18.2075 119.058 18.514 116.38 18.3034 113.069L16.052 106.287L14.5452 95.7394L13.0384 85.1918V55.0558L10.7782 41.4946L10.2271 33.7738L7.29019 43.3186L5.08755 53.5976L3.61913 68.2819L3.99756 95.7394L5.50436 117.474C5.50436 117.474 8.02441 128.487 8.02441 129.222C8.02441 129.956 10.1637 131.169 9.49284 135.095C9.49284 135.274 9.88379 136.708 9.49284 135.095L5.50436 142.45L2.49075 149.045C1.64116 152.659 1.08038 152.541 0.682281 156.011C-0.0384521 163.193 -0.397125 167.19 0.682281 175.477C2.03194 179.965 3.36453 183.423 5.50436 187.225C6.82652 190.635 7.24796 191.64 9.49284 195.301L16.8054 207.048L31.5192 220.804L37.393 224.669C40.0692 227.098 40.7729 227.535 44.0009 229.809C48.3436 232.213 50.2551 234.573 55.2288 235.872L68.79 241.899L80.8444 247.173L94.4056 256.967L107.967 265.255L122.562 273.862C127.868 276.334 131.914 278.955 132.829 281.076C136.041 285.693 137.263 286.564 139.61 288.61L148.65 294.637ZM13.0384 156.011C11.8727 150.072 11.6955 151.491 11.6955 151.491C11.6955 151.491 8.75862 153.751 8.75862 157.518L9.49284 163.73C9.84314 168.945 11.1636 171.038 10.9613 171.072L13.1639 176.946C13.1639 176.946 18.3122 184.641 18.3122 183.887C18.3122 183.134 17.5692 178.414 17.5692 178.414C16.8445 176.744 16.5747 175.778 16.1008 173.274C15.2084 169.244 13.8722 167.779 13.7918 164.299C13.4173 161.005 13.1996 159.19 13.0384 156.011Z" fill="white"/>
<path fill-rule="evenodd" clip-rule="evenodd" d="M224.784 294.637L220.264 270.528C221.962 270.902 222.891 270.926 224.441 270.191C226.202 269.257 226.997 268.608 228.112 267.254L229.581 263.583L231.783 259.177L234.72 251.835L237.657 245.227L240.605 237.379L242.112 233.612L243.531 225.404C245.646 223.076 246.364 221.982 248.893 220.264L247.386 224.571L246.633 231.352C245.898 237.926 245.928 240.562 247.386 241.899C247.569 243.075 247.932 243.72 248.893 244.913C249.05 246.313 253.346 246.925 256.747 245.227C260.147 243.53 274.919 237.823 275.102 237.151C275.511 237.069 292.42 226.729 296.394 221.733C299.035 218.411 302.268 212.188 302.268 212.188C304.248 208.024 303.982 205.849 304.642 202.735L304.645 202.722C305.587 196.524 306.325 192.712 304.47 187.225L303.138 182.381L301.631 175.6L300.124 171.079C299.477 167.875 299.175 166.959 298.617 165.052L297.111 157.518L295.604 148.477L294.097 142.45L292.59 137.176L291.083 131.903L289.577 127.382L288.07 122.862L286.849 118.208L286.115 113.803C284.286 105.699 284.667 103.988 284.647 99.1189C283.515 93.5366 283.093 89.8377 282.444 82.9661L280.976 72.6872C280.114 70.6005 279.661 69.58 279.029 68.617L277.522 61.083L282.444 69.0161L285.381 75.624L286.849 80.0293L288.318 85.1688L289.786 91.7767C290.815 94.0617 291.243 95.9343 291.989 99.8531L292.723 102.056L294.191 106.461L297.862 115.272L300.799 124.816L303.736 132.158L305.205 136.564L307.407 141.703C308.273 142.674 308.753 142.873 309.61 142.45C311.587 138.933 312.853 137.264 312.547 135.095L314.015 124.816L315.192 113.068L316.699 100.26L318.206 91.219V64.0966L316.699 55.0558L315.192 46.015L313.685 38.481L312.179 30.947C311.905 29.1054 311.057 28.0799 309.918 26.4266C308.573 24.4731 308.016 23.4543 306.905 21.1528C305.794 18.8513 304.374 17.9539 303.736 16.1527C303.102 14.5488 302.178 14.7702 299.331 9.54478C296.357 7.53228 294.828 5.46728 292.723 4.40528L288.318 0L297.862 2.20264L302.268 6.60792L309.918 16.1527L313.281 21.2922L318.42 30.837L321.357 40.3818L324.294 50.6607L325.763 58.0029L327.231 65.345C327.872 68.2618 328.157 69.8838 328.699 73.4214C329.441 75.9807 330.464 79.4995 330.902 82.2319C331.539 85.4461 330.046 94.7176 329.434 98.3846C329.547 98.8314 327.908 104.649 327.231 107.929L325.74 137.93L325.028 142.437C324.178 144.224 324.193 144.389 323.56 146.109C323.59 148.317 323.039 149.927 322.726 151.491L319.713 159.025C319.467 162.782 318.923 162.514 319.713 166.559C320.285 169.493 320.377 174.13 320.623 175.477C321.024 178.363 321.131 180.542 321.357 183.553C321.476 187.822 321.622 189.998 321.357 193.832C321.187 198.106 321.684 201.257 320.466 205.736C319.899 208.494 319.155 209.251 319.155 209.251C318.638 211.247 317.488 213.968 317.686 215.859C319.393 215.587 320.246 215.251 321.095 214.777C323.849 212.455 324.205 210.659 325.723 208.77L325.74 208.75L330.26 204.229L334.781 199.709C337.023 197.264 337.72 195.655 339.301 192.928C339.982 190.041 340.609 186.11 340.808 183.887C341.006 181.664 341.214 180.193 342.315 175.6C343.415 171.006 343.821 168.066 343.821 168.066L345.328 159.025L346.776 151.784C347.439 146.386 347.894 143.457 349.095 138.683L349.138 138.528C350.824 132.35 351.31 131.121 352.929 129.222C353.242 126.915 353.789 126.426 352.862 124.369L349.992 118.943L347.055 113.803C346.082 111.901 345.586 111.6 344.852 109.398L344.118 106.461V104.993L347.789 109.301L351.46 114.537C355.227 119.058 354.921 116.38 355.131 113.069L357.383 106.287L358.889 95.7394L360.396 85.1918V55.0558L362.656 41.4946L363.208 33.7738L366.144 43.3186L368.347 53.5976L369.815 68.2819L369.437 95.7394L367.93 117.474C367.93 117.474 365.41 128.487 365.41 129.222C365.41 129.956 363.271 131.169 363.942 135.095C363.942 135.274 363.551 136.708 363.942 135.095L367.93 142.45L370.944 149.045C371.793 152.659 372.354 152.541 372.752 156.011C373.473 163.193 373.832 167.19 372.752 175.477C371.403 179.965 370.07 183.423 367.93 187.225C366.608 190.635 366.187 191.64 363.942 195.301L356.629 207.048L341.915 220.804L336.042 224.669C333.365 227.098 332.662 227.535 329.434 229.809C325.091 232.213 323.179 234.573 318.206 235.872L304.645 241.899L292.59 247.173L279.029 256.967L265.468 265.255L250.873 273.862C245.567 276.334 241.521 278.955 240.605 281.076C237.394 285.693 236.171 286.564 233.825 288.61L224.784 294.637ZM360.396 156.011C361.562 150.072 361.739 151.491 361.739 151.491C361.739 151.491 364.676 153.751 364.676 157.518L363.942 163.73C363.591 168.945 362.271 171.038 362.473 171.072L360.271 176.946C360.271 176.946 355.122 184.641 355.122 183.887C355.122 183.134 355.865 178.414 355.865 178.414C356.59 176.744 356.86 175.778 357.334 173.274C358.226 169.244 359.562 167.779 359.643 164.299C360.017 161.005 360.235 159.19 360.396 156.011Z" fill="white"/>
</svg>
